<svg xmlns="http://www.w3.org/2000/svg" xmlns:xlink="http://www.w3.org/1999/xlink" zoomAndPan="magnify" preserveAspectRatio="xMidYMid meet" version="1.0" viewBox="52 84.98 272.76 204.76"><defs><g/><clipPath id="id1"><path d="M 84.984375 84.984375 L 289.734375 84.984375 L 289.734375 289.734375 L 84.984375 289.734375 Z M 84.984375 84.984375 " clip-rule="nonzero"/></clipPath><clipPath id="id2"><path d="M 52 140 L 324.761719 140 L 324.761719 237 L 52 237 Z M 52 140 " clip-rule="nonzero"/></clipPath></defs><g clip-path="url(#id1)"><path fill="#113859" d="M 289.75 187.367188 C 289.75 130.820312 243.910156 84.984375 187.367188 84.984375 C 130.824219 84.984375 84.984375 130.820312 84.984375 187.367188 C 84.984375 243.910156 130.824219 289.746094 187.367188 289.746094 C 243.910156 289.746094 289.75 243.910156 289.75 187.367188 " fill-opacity="1" fill-rule="nonzero"/></g><path fill="#f2eed6" d="M 284.175781 187.367188 C 284.175781 133.898438 240.832031 90.554688 187.367188 90.554688 C 133.902344 90.554688 90.558594 133.898438 90.558594 187.367188 C 90.558594 240.832031 133.902344 284.175781 187.367188 284.175781 C 240.832031 284.175781 284.175781 240.832031 284.175781 187.367188 " fill-opacity="1" fill-rule="nonzero"/><path fill="#113859" d="M 255.152344 187.367188 C 255.152344 149.929688 224.804688 119.578125 187.367188 119.578125 C 149.929688 119.578125 119.582031 149.929688 119.582031 187.367188 C 119.582031 224.800781 149.929688 255.152344 187.367188 255.152344 C 224.804688 255.152344 255.152344 224.800781 255.152344 187.367188 " fill-opacity="1" fill-rule="nonzero"/><path fill="#f4623a" d="M 250.746094 187.367188 C 250.746094 152.363281 222.371094 123.988281 187.367188 123.988281 C 152.363281 123.988281 123.988281 152.363281 123.988281 187.367188 C 123.988281 222.367188 152.363281 250.746094 187.367188 250.746094 C 222.371094 250.746094 250.746094 222.367188 250.746094 187.367188 " fill-opacity="1" fill-rule="nonzero"/><g clip-path="url(#id2)"><path fill="#113859" d="M 184.417969 140.757812 C 192.695312 141.414062 201.035156 142.867188 208.917969 145.570312 C 210.886719 146.261719 212.957031 146.953125 214.695312 148.105469 C 216.304688 149.0625 217.652344 150.28125 219.03125 151.566406 C 222.152344 154.5 225.929688 157.136719 228.488281 160.566406 C 228.917969 161.09375 229.308594 161.683594 229.835938 162.113281 C 231.347656 162.445312 233.019531 162.246094 234.566406 162.34375 C 244.152344 162.609375 253.777344 162.9375 263.332031 163.695312 C 272.167969 164.027344 280.96875 164.816406 289.667969 166.53125 C 296.105469 167.816406 302.707031 169.464844 308.683594 172.230469 C 312.230469 173.914062 315.777344 176.054688 317.878906 179.449219 C 319.457031 181.855469 319.914062 184.824219 319.355469 187.625 C 319.027344 189.207031 318.304688 190.558594 317.550781 191.941406 C 319.652344 192.566406 321.820312 193.027344 323.296875 194.777344 C 324.152344 195.730469 324.710938 197.378906 323.921875 198.535156 C 323.265625 199.09375 322.214844 199.257812 321.359375 199.355469 C 319.488281 199.488281 317.617188 199.390625 315.746094 199.457031 C 314.726562 201.5 313.742188 203.574219 312.230469 205.289062 C 311.015625 206.707031 309.503906 207.828125 307.828125 208.683594 C 305.300781 210.035156 302.675781 210.628906 299.914062 211.484375 C 300.046875 212.902344 300.179688 214.289062 300.113281 215.703125 C 299.980469 219.628906 298.570312 223.382812 296.269531 226.515625 C 293.480469 230.40625 289.308594 233.105469 284.875 234.722656 C 275.941406 237.953125 265.464844 236.238281 258.210938 230.042969 C 255.351562 227.636719 253.382812 224.570312 251.773438 221.242188 C 241.820312 221.503906 231.871094 221.40625 221.953125 221.835938 C 221.332031 223.351562 220.738281 225 219.886719 226.382812 C 218.375 228.757812 216.273438 230.699219 213.941406 232.25 C 211.871094 233.632812 209.605469 234.886719 207.210938 235.546875 C 200.804688 237.160156 194.007812 237.492188 187.570312 235.941406 C 185.796875 235.480469 183.992188 234.917969 182.414062 233.929688 C 180.117188 232.480469 178.210938 230.734375 176.207031 228.921875 C 174.597656 230.238281 172.925781 231.425781 170.988281 232.152344 C 165.796875 234.195312 159.625 233.273438 155.386719 229.613281 C 153.449219 228 152.234375 225.890625 151.152344 223.613281 C 144.320312 223.714844 137.492188 223.945312 130.691406 224.011719 C 128.953125 224.011719 126.917969 224.273438 125.242188 223.78125 C 123.761719 223.351562 122.8125 221.570312 121.957031 220.386719 C 115.226562 220.449219 108.527344 220.648438 101.792969 220.648438 C 101.433594 223.550781 100.613281 226.351562 99.332031 229.019531 C 98.445312 230.765625 97.03125 232.382812 95.421875 233.46875 C 94.175781 234.328125 92.402344 234.160156 90.957031 234.226562 C 87.113281 234.261719 82.78125 234.722656 79.167969 233.304688 C 76.410156 232.382812 74.339844 229.710938 73.289062 227.109375 C 71.777344 223.714844 71.121094 220.121094 70.726562 216.464844 C 69.25 216.296875 67.773438 216.101562 66.359375 215.605469 C 62.910156 214.484375 59.859375 212.144531 57.589844 209.34375 C 54.539062 205.585938 52.730469 200.808594 52.273438 195.960938 C 51.8125 190.589844 53.058594 184.988281 56.3125 180.636719 C 56.835938 179.976562 57.425781 179.152344 58.28125 178.890625 C 59.265625 178.558594 60.316406 178.394531 61.300781 178.097656 C 66.722656 176.617188 71.941406 174.636719 77.394531 173.1875 C 78.804688 172.726562 80.285156 172.527344 81.664062 171.96875 C 82.648438 171.410156 83.402344 170.417969 84.222656 169.660156 C 90.136719 163.992188 97.425781 159.511719 104.714844 155.851562 C 116.277344 150.117188 128.789062 146.128906 141.429688 143.589844 C 155.519531 140.722656 170.066406 139.703125 184.417969 140.757812 Z M 184.417969 140.757812 " fill-opacity="1" fill-rule="nonzero"/></g><path fill="#f2eed6" d="M 189.902344 144.449219 C 196.4375 145.304688 202.839844 146.65625 209.082031 148.898438 C 210.820312 149.558594 212.695312 150.117188 214.171875 151.269531 C 216.4375 153.015625 218.472656 155.355469 220.476562 157.367188 C 222.085938 159.015625 223.792969 160.53125 225.371094 162.277344 C 224.648438 162.277344 223.890625 162.3125 223.167969 162.179688 C 222.644531 161.917969 222.25 161.355469 221.824219 160.925781 C 219.851562 158.554688 217.554688 156.578125 215.1875 154.597656 C 213.1875 153.015625 211.28125 151.433594 208.816406 150.578125 C 199.789062 146.789062 190.101562 145.964844 180.445312 145.273438 C 176.339844 144.941406 172.234375 145.042969 168.128906 145.105469 C 162.1875 145.273438 156.109375 145.667969 150.230469 146.6875 C 148.128906 147.050781 146.0625 147.382812 144.027344 148.105469 C 145.207031 149.359375 146.457031 150.378906 147.375 151.863281 C 149.34375 154.929688 150.691406 158.289062 152.5625 161.390625 C 153.550781 163.035156 154.929688 164.289062 156.375 165.574219 C 155.09375 165.738281 153.941406 165.9375 152.761719 165.277344 C 151.054688 164.386719 150.398438 162.675781 149.410156 161.125 C 147.210938 157.632812 145.207031 154.203125 142.152344 151.371094 C 140.773438 150.148438 139.164062 149.359375 137.292969 149.457031 C 133.746094 149.589844 130.234375 150.25 126.851562 151.269531 C 123.171875 152.292969 119.59375 153.578125 116.144531 155.226562 C 114.207031 156.148438 111.710938 156.9375 110.265625 158.585938 C 109.445312 159.707031 109.28125 161.355469 108.886719 162.675781 C 107.902344 166.234375 107.902344 169.925781 108.460938 173.550781 C 107.902344 173.648438 107.34375 173.75 106.785156 173.847656 C 106.195312 170.714844 106.292969 167.519531 106.621094 164.386719 C 106.917969 162.082031 107.410156 159.542969 108.65625 157.53125 C 109.3125 156.378906 110.691406 156.015625 111.84375 155.523438 C 128.460938 148.667969 146.160156 144.875 164.023438 143.722656 C 172.660156 143.164062 181.296875 143.359375 189.902344 144.449219 Z M 189.902344 144.449219 " fill-opacity="1" fill-rule="nonzero"/><path fill="#f2eed6" d="M 176.996094 146.984375 C 185.535156 147.117188 194.039062 148.207031 202.347656 150.085938 C 204.089844 150.480469 205.796875 150.941406 207.472656 151.566406 C 207.210938 152.457031 207.109375 153.246094 206.355469 153.875 C 204.777344 155.191406 202.480469 155.753906 200.511719 156.117188 C 195.75 156.875 190.988281 156.808594 186.222656 156.445312 C 174.992188 155.457031 164.023438 153.050781 153.253906 149.753906 C 152.039062 149.390625 150.824219 148.996094 149.640625 148.503906 C 158.640625 147.019531 167.867188 146.625 176.996094 146.984375 Z M 176.996094 146.984375 " fill-opacity="1" fill-rule="nonzero"/><path fill="#f2eed6" d="M 136.996094 152.488281 C 138.933594 152.425781 140.316406 153.511719 141.695312 154.699219 C 140.9375 155.554688 140.183594 156.378906 139.296875 157.105469 C 134.699219 160.761719 129.117188 163.101562 123.269531 163.894531 C 119.691406 164.320312 116.210938 163.695312 112.925781 162.277344 C 113.15625 161.390625 113.222656 160.234375 113.78125 159.511719 C 114.601562 158.851562 115.75 158.519531 116.703125 158.09375 C 120.152344 156.542969 123.664062 155.257812 127.308594 154.269531 C 130.429688 153.3125 133.746094 152.621094 136.996094 152.488281 Z M 136.996094 152.488281 " fill-opacity="1" fill-rule="nonzero"/><path fill="#f2eed6" d="M 224.746094 165.046875 C 233.285156 164.980469 241.820312 165.3125 250.359375 165.738281 C 254.597656 165.9375 258.800781 166.234375 263.003906 166.628906 C 268.847656 167.15625 274.792969 167.453125 280.574219 168.375 C 282.445312 168.605469 284.316406 168.738281 286.1875 169.066406 C 290.71875 169.890625 295.253906 170.714844 299.71875 171.9375 C 304.414062 173.15625 308.945312 175.035156 312.558594 178.363281 C 312 178.625 311.441406 178.921875 310.851562 179.1875 C 310.160156 178.265625 309.472656 177.308594 308.453125 176.746094 C 306.976562 175.921875 305.105469 175.628906 303.460938 175.394531 C 298.765625 174.769531 293.9375 174.605469 289.210938 174.472656 C 281.230469 174.144531 272.988281 173.582031 265.039062 174.046875 C 263.265625 174.144531 261.425781 174.339844 259.6875 174.835938 C 257.75 175.363281 255.941406 176.617188 254.5625 178.066406 C 252.855469 179.847656 251.871094 181.855469 250.6875 184 C 249.867188 185.546875 248.980469 187.03125 248.257812 188.613281 C 244.253906 188.84375 240.277344 188.515625 236.273438 188.382812 C 240.574219 185.941406 244.910156 184.164062 248.421875 180.539062 C 249.605469 179.320312 250.984375 177.703125 250.722656 175.890625 C 250.460938 174.175781 248.621094 173.320312 247.175781 172.726562 C 244.351562 171.738281 241.328125 171.210938 238.339844 170.882812 C 234.957031 170.519531 231.609375 170.453125 228.226562 170.980469 C 226.648438 171.242188 225.171875 172 223.957031 173.023438 C 222.609375 174.175781 221.855469 175.957031 221.332031 177.605469 C 220.574219 180.011719 221.066406 182.648438 222.019531 184.886719 C 222.578125 186.238281 223.464844 187.359375 224.15625 188.644531 C 222.382812 187.523438 221.066406 185.84375 220.476562 183.832031 C 219.785156 181.691406 219.984375 179.484375 219.457031 177.375 C 219.261719 176.582031 218.933594 175.890625 218.242188 175.429688 C 217.324219 174.835938 216.402344 174.933594 215.386719 175.035156 C 208.324219 175.792969 201.230469 176.386719 194.171875 177.210938 C 179.753906 178.660156 165.339844 180.078125 150.921875 181.492188 C 150.398438 184.855469 150.265625 188.316406 150.132812 191.742188 C 149.9375 197.082031 150.726562 202.390625 151.613281 207.628906 C 150.101562 205.027344 149.675781 201.632812 149.050781 198.699219 C 148.164062 193.128906 147.964844 187.394531 148.457031 181.789062 C 146.816406 181.890625 145.207031 182.019531 143.566406 182.1875 C 136.011719 182.945312 128.460938 183.601562 120.90625 184.359375 C 116.40625 184.757812 111.875 185.285156 107.375 185.613281 C 107.246094 184.953125 106.71875 183.867188 107.277344 183.304688 C 107.835938 182.8125 108.855469 182.8125 109.578125 182.714844 C 114.601562 182.351562 119.59375 181.890625 124.617188 181.429688 C 132.664062 180.703125 140.675781 179.976562 148.722656 179.21875 C 149.117188 176.648438 149.773438 174.144531 150.527344 171.671875 C 148.261719 171.804688 146.027344 172.265625 143.761719 172.527344 C 139.65625 173.121094 135.554688 173.617188 131.449219 174.242188 C 127.34375 174.703125 123.269531 175.660156 119.230469 176.484375 C 116.113281 176.945312 113.058594 177.605469 110.003906 178.265625 C 108.589844 178.59375 107.277344 179.21875 106.488281 180.472656 C 105.703125 181.789062 105.175781 183.339844 104.816406 184.855469 C 103.566406 190.261719 104.125 196.0625 105.800781 201.335938 C 106.261719 202.851562 106.949219 204.269531 107.476562 205.75 C 105.042969 202.457031 103.632812 198.300781 102.746094 194.316406 C 102.089844 191.28125 102.089844 188.183594 102.515625 185.121094 C 102.679688 183.769531 103.042969 182.417969 103.140625 181.03125 C 103.207031 179.976562 102.679688 179.054688 101.828125 178.496094 C 99.988281 177.175781 97.492188 176.648438 95.324219 176.386719 C 92.140625 176.054688 88.921875 176.15625 85.800781 176.8125 C 82.351562 177.375 78.96875 178.363281 75.523438 178.921875 C 70.726562 179.878906 66.195312 180.964844 61.238281 180.667969 C 62.515625 180.273438 63.796875 179.976562 65.113281 179.613281 C 71.285156 177.902344 77.589844 175.757812 83.832031 174.507812 C 88.625 173.484375 93.648438 173.023438 98.511719 174.011719 C 100.546875 174.40625 101.925781 175.660156 103.664062 176.617188 C 104.945312 177.339844 106.390625 176.78125 107.703125 176.484375 C 111.808594 175.363281 115.980469 174.574219 120.117188 173.648438 C 124.75 172.59375 129.445312 171.871094 134.109375 170.945312 C 137.195312 170.417969 140.28125 170.058594 143.367188 169.628906 C 145.929688 169.300781 148.492188 169.199219 151.054688 168.902344 C 162.808594 167.550781 174.597656 166.597656 186.390625 165.902344 C 199.195312 165.210938 212.003906 165.113281 224.746094 165.046875 Z M 224.746094 165.046875 " fill-opacity="1" fill-rule="nonzero"/><path fill="#113859" d="M 175.027344 169.859375 C 178.179688 169.695312 181.296875 169.59375 184.453125 169.859375 C 190.296875 169.957031 195.914062 170.847656 201.757812 171.804688 C 204.253906 172.398438 206.816406 172.890625 209.246094 173.683594 C 208.261719 173.8125 207.273438 173.914062 206.289062 174.011719 C 198.605469 174.671875 190.953125 175.460938 183.269531 176.15625 C 172.628906 177.109375 161.988281 178.164062 151.347656 179.054688 C 151.777344 176.484375 152.300781 173.945312 153.253906 171.507812 C 156.964844 171.210938 160.675781 170.75 164.351562 170.253906 C 167.964844 169.792969 171.480469 170.058594 175.027344 169.859375 Z M 175.027344 169.859375 " fill-opacity="1" fill-rule="nonzero"/><path fill="#f2eed6" d="M 232.957031 173.417969 C 234.234375 174.144531 235.089844 175.066406 235.746094 176.386719 C 237.324219 179.515625 237.058594 183.472656 234.992188 186.273438 C 235.320312 184.789062 235.746094 183.4375 235.8125 181.890625 C 235.878906 180.042969 235.648438 178.066406 234.894531 176.351562 C 234.367188 175.265625 233.613281 174.441406 232.957031 173.417969 Z M 232.957031 173.417969 " fill-opacity="1" fill-rule="nonzero"/><path fill="#f2eed6" d="M 227.472656 173.945312 C 229.144531 173.320312 230.917969 173.878906 232.132812 175.132812 C 234.761719 177.800781 234.992188 182.316406 233.21875 185.480469 C 232.296875 187.128906 230.753906 188.382812 228.816406 188.382812 C 226.78125 188.382812 225.207031 187.03125 224.320312 185.285156 C 222.90625 182.515625 223.136719 179.023438 224.710938 176.386719 C 225.335938 175.296875 226.257812 174.375 227.472656 173.945312 Z M 227.472656 173.945312 " fill-opacity="1" fill-rule="nonzero"/><path fill="#f2eed6" d="M 270.492188 176.582031 C 273.675781 176.617188 276.828125 176.449219 280.015625 176.648438 C 283.101562 176.714844 286.15625 176.976562 289.210938 177.078125 C 292.988281 177.339844 296.761719 177.40625 300.539062 177.800781 C 302.410156 178 304.382812 178.199219 306.1875 178.757812 C 307.402344 179.085938 308.324219 180.109375 308.421875 181.394531 C 308.519531 182.648438 308.257812 183.964844 307.960938 185.183594 C 307.5 187.03125 306.613281 188.746094 305.039062 189.898438 C 305.53125 187.921875 306.351562 186.304688 306.253906 184.230469 C 306.15625 183.042969 305.957031 181.59375 304.742188 181.03125 C 302.511719 179.847656 299.816406 179.351562 297.320312 178.988281 C 289.210938 177.933594 280.671875 177.96875 272.460938 177.800781 C 267.996094 177.769531 263.792969 177.503906 259.425781 178.726562 C 257.816406 179.21875 256.632812 180.175781 255.222656 181.066406 C 256.699219 179.253906 258.570312 177.835938 260.902344 177.339844 C 264.085938 176.683594 267.339844 176.683594 270.492188 176.582031 Z M 270.492188 176.582031 " fill-opacity="1" fill-rule="nonzero"/><path fill="#f2eed6" d="M 312.757812 180.273438 C 313.742188 180.40625 314.234375 181.394531 314.496094 182.25 C 314.957031 183.933594 314.957031 185.976562 314.464844 187.65625 C 314.136719 188.777344 313.3125 189.898438 312.035156 189.964844 C 311.410156 189.503906 310.949219 188.777344 310.71875 188.050781 C 310.359375 186.898438 311.015625 185.480469 311.148438 184.296875 C 311.34375 183.242188 311.34375 182.085938 311.671875 181.066406 C 311.871094 180.570312 312.199219 180.140625 312.757812 180.273438 Z M 312.757812 180.273438 " fill-opacity="1" fill-rule="nonzero"/><path fill="#f2eed6" d="M 184.78125 180.667969 C 189.082031 180.667969 193.253906 182.515625 196.734375 184.921875 C 201.855469 188.613281 205.960938 193.789062 208.71875 199.457031 C 209.671875 201.402344 210.527344 203.34375 211.085938 205.453125 C 210.199219 203.640625 209.539062 201.730469 208.457031 200.015625 C 207.273438 198.136719 206.160156 196.160156 204.8125 194.445312 C 203.367188 192.601562 201.527344 190.953125 199.6875 189.46875 C 196.636719 187.0625 193.253906 185.054688 189.441406 184.164062 C 186.554688 183.503906 183.335938 183.40625 180.578125 184.625 C 177.753906 185.84375 175.484375 188.347656 173.941406 190.953125 C 171.972656 194.378906 171.25 198.203125 171.347656 202.125 C 170.824219 198.007812 171.019531 193.886719 172.367188 189.929688 C 173.1875 187.460938 174.632812 185.21875 176.636719 183.539062 C 178.867188 181.625 181.824219 180.636719 184.78125 180.667969 Z M 184.78125 180.667969 " fill-opacity="1" fill-rule="nonzero"/><path fill="#f2eed6" d="M 98.773438 187.589844 C 98.214844 188.777344 97.625 189.800781 97.523438 191.152344 C 97.230469 195.335938 98.445312 199.6875 99.890625 203.574219 C 100.347656 204.863281 101.203125 205.816406 102.089844 206.839844 C 100.90625 206.445312 99.824219 206.015625 98.902344 205.125 C 97.820312 204.167969 97.261719 202.851562 96.738281 201.53125 C 95.75 198.996094 95.0625 196.226562 94.996094 193.492188 C 94.996094 192.074219 94.964844 190.425781 95.488281 189.074219 C 96.179688 188.183594 97.753906 187.886719 98.773438 187.589844 Z M 98.773438 187.589844 " fill-opacity="1" fill-rule="nonzero"/><path fill="#f2eed6" d="M 80.808594 190.390625 C 83.109375 191.25 85.210938 192.898438 86.882812 194.675781 C 90.464844 198.46875 93.027344 203.179688 94.46875 208.191406 C 95.027344 210.136719 95.488281 212.046875 95.585938 214.089844 C 94.734375 212.441406 94.109375 210.695312 93.355469 209.015625 C 92.007812 205.949219 90.398438 203.046875 88.527344 200.28125 C 87.410156 198.632812 86.195312 197.050781 84.71875 195.730469 C 83.140625 194.347656 81.566406 192.964844 79.59375 192.207031 C 78.019531 191.578125 76.308594 191.480469 74.734375 192.171875 C 73.421875 192.765625 72.632812 193.820312 71.679688 194.84375 C 72.433594 193.226562 73.289062 191.777344 74.832031 190.789062 C 76.605469 189.601562 78.804688 189.667969 80.808594 190.390625 Z M 80.808594 190.390625 " fill-opacity="1" fill-rule="nonzero"/><path fill="#f2eed6" d="M 233.382812 190.984375 C 240.574219 191.085938 247.765625 190.953125 254.957031 191.152344 C 259.261719 191.25 263.5625 191.28125 267.832031 191.511719 C 271.773438 191.742188 275.746094 191.710938 279.6875 192.007812 C 283.527344 192.304688 287.371094 192.335938 291.179688 192.601562 C 294.429688 192.832031 297.683594 192.929688 300.933594 193.0625 C 303.953125 193.292969 306.941406 193.128906 309.964844 193.554688 C 313.742188 194.050781 317.550781 193.917969 320.933594 195.929688 C 320.769531 196.191406 320.636719 196.425781 320.472656 196.6875 C 313.117188 196.6875 305.726562 196.621094 298.339844 196.589844 C 285.203125 196.589844 272.066406 196.457031 258.933594 196.425781 C 245.699219 196.457031 232.464844 196.292969 219.226562 196.292969 C 217.191406 196.292969 215.15625 196.324219 213.152344 196.226562 C 213.1875 195.46875 213.023438 194.742188 213.644531 194.183594 C 214.53125 193.390625 215.8125 192.964844 216.929688 192.566406 C 219.917969 191.679688 223.300781 191.445312 226.421875 191.183594 C 228.785156 191.019531 231.082031 190.917969 233.382812 190.984375 Z M 233.382812 190.984375 " fill-opacity="1" fill-rule="nonzero"/><path fill="#f2eed6" d="M 192.101562 195.699219 C 194.5 195.335938 197.027344 195.929688 199.230469 196.886719 C 202.511719 198.367188 205.042969 201.402344 206.453125 204.664062 C 209.441406 211.386719 207.898438 219.859375 202.742188 225.097656 C 200.542969 227.175781 197.621094 228.722656 194.566406 229.019531 C 191.675781 229.449219 188.554688 228.328125 186.191406 226.746094 C 182.480469 224.242188 180.246094 220.1875 179.523438 215.835938 C 178.539062 210.035156 180.410156 204.003906 184.453125 199.753906 C 186.421875 197.542969 189.179688 196.160156 192.101562 195.699219 Z M 192.101562 195.699219 " fill-opacity="1" fill-rule="nonzero"/><path fill="#113859" d="M 192.101562 197.414062 C 194.695312 196.886719 197.488281 197.347656 199.851562 198.566406 C 202.710938 200.082031 204.746094 202.785156 205.894531 205.785156 C 208.195312 211.519531 206.914062 218.738281 202.578125 223.1875 C 200.839844 225 198.539062 226.21875 196.078125 226.746094 C 193.644531 227.242188 191.117188 226.84375 188.917969 225.722656 C 186.324219 224.40625 184.285156 222.132812 183.039062 219.496094 C 180.410156 213.925781 181.132812 206.871094 184.945312 202.027344 C 186.71875 199.71875 189.246094 198.039062 192.101562 197.414062 Z M 192.101562 197.414062 " fill-opacity="1" fill-rule="nonzero"/><path fill="#f2eed6" d="M 193.1875 199.027344 C 195.78125 198.535156 198.308594 199.324219 200.378906 200.90625 C 203.726562 203.445312 205.4375 207.5 205.4375 211.683594 C 205.566406 216.363281 203.53125 221.078125 199.589844 223.714844 C 197.09375 225.425781 193.84375 225.789062 191.019531 224.734375 C 189.082031 224.011719 187.375 222.625 186.125 220.976562 C 183.070312 216.859375 182.515625 211.191406 184.453125 206.476562 C 186.027344 202.785156 189.148438 199.652344 193.1875 199.027344 Z M 193.1875 199.027344 " fill-opacity="1" fill-rule="nonzero"/><path fill="#f2eed6" d="M 302.609375 199.488281 C 303.101562 199.355469 303.625 199.324219 304.152344 199.292969 C 302.640625 201.828125 300.210938 203.476562 297.289062 203.871094 C 291.3125 204.695312 285.171875 204.628906 279.128906 204.992188 C 271.9375 205.15625 264.449219 205.554688 257.355469 204.664062 C 256.007812 204.464844 254.53125 204.167969 253.316406 203.476562 C 252.496094 203.015625 251.96875 202.324219 251.378906 201.597656 C 252.59375 201.960938 253.742188 202.390625 254.957031 202.652344 C 258.636719 203.445312 262.148438 203.410156 265.859375 203.542969 C 270 203.773438 274.105469 203.609375 278.242188 203.640625 C 281.132812 203.609375 283.988281 203.410156 286.878906 203.246094 C 289.832031 203.148438 292.820312 203.148438 295.8125 202.6875 C 297.683594 202.390625 299.457031 201.796875 300.964844 200.644531 C 301.523438 200.28125 302.015625 199.785156 302.609375 199.488281 Z M 302.609375 199.488281 " fill-opacity="1" fill-rule="nonzero"/><path fill="#113859" d="M 193.480469 199.984375 C 193.382812 201.960938 193.152344 204.003906 192.5625 205.917969 C 192.332031 206.609375 191.90625 207.597656 191.085938 207.761719 C 190.460938 207.859375 190.066406 207.367188 189.769531 206.90625 C 189.148438 205.816406 188.851562 204.5 188.851562 203.28125 C 188.851562 202.488281 188.949219 201.699219 189.574219 201.171875 C 190.691406 200.28125 192.101562 200.117188 193.480469 199.984375 Z M 193.480469 199.984375 " fill-opacity="1" fill-rule="nonzero"/><path fill="#f2eed6" d="M 82.8125 200.773438 C 84.222656 201.433594 85.046875 202.785156 85.832031 204.070312 C 84.847656 203.410156 83.863281 202.519531 82.617188 202.554688 C 81.070312 202.585938 79.855469 203.675781 79.003906 204.894531 C 77.328125 207.332031 76.769531 210.496094 76.636719 213.398438 C 76.574219 216.398438 77 219.757812 78.542969 222.363281 C 79.363281 223.78125 80.613281 225 82.320312 225.132812 C 83.535156 225.230469 84.585938 224.273438 85.539062 223.648438 C 84.816406 224.734375 84.125 225.824219 82.878906 226.417969 C 81.566406 227.007812 80.085938 226.648438 79.070312 225.625 C 77.523438 224.078125 76.605469 221.800781 76.046875 219.691406 C 74.898438 214.816406 75.128906 209.609375 76.96875 204.925781 C 77.523438 203.609375 78.28125 202.226562 79.398438 201.300781 C 80.382812 200.476562 81.695312 200.246094 82.8125 200.773438 Z M 82.8125 200.773438 " fill-opacity="1" fill-rule="nonzero"/><path fill="#113859" d="M 200.410156 203.675781 C 201.496094 203.34375 202.511719 203.972656 203.003906 204.894531 C 203.5 205.851562 203.792969 207.003906 203.628906 208.058594 C 203.464844 208.847656 202.777344 209.144531 202.085938 209.410156 C 200.804688 209.839844 199.425781 210.101562 198.078125 210.332031 C 197.390625 210.398438 196.40625 210.53125 195.78125 210.136719 C 195.253906 209.804688 195.289062 209.082031 195.386719 208.554688 C 195.648438 207.398438 196.699219 206.542969 197.519531 205.75 C 198.40625 204.992188 199.359375 204.070312 200.410156 203.675781 Z M 200.410156 203.675781 " fill-opacity="1" fill-rule="nonzero"/><path fill="#f2eed6" d="M 81.925781 204.335938 C 82.617188 203.972656 83.371094 204.070312 84.027344 204.464844 C 85.011719 205.09375 85.636719 206.277344 86.03125 207.367188 C 87.476562 211.585938 87.410156 216.265625 85.898438 220.417969 C 85.40625 221.671875 84.453125 223.21875 83.074219 223.613281 C 82.089844 223.910156 81.269531 223.285156 80.679688 222.558594 C 79.527344 221.144531 78.96875 219.132812 78.640625 217.386719 C 78.117188 213.957031 78.378906 210.199219 79.757812 207.003906 C 80.183594 206.015625 80.90625 204.863281 81.925781 204.335938 Z M 81.925781 204.335938 " fill-opacity="1" fill-rule="nonzero"/><path fill="#113859" d="M 81.335938 205.257812 C 81.398438 205.917969 81.53125 206.507812 81.300781 207.167969 C 81.007812 207.960938 80.644531 209.046875 79.757812 209.34375 C 79.527344 209.015625 79.363281 208.71875 79.496094 208.289062 C 79.691406 207.464844 80.152344 206.675781 80.644531 205.980469 C 80.90625 205.75 81.136719 205.488281 81.335938 205.257812 Z M 81.335938 205.257812 " fill-opacity="1" fill-rule="nonzero"/><path fill="#113859" d="M 85.210938 206.773438 C 85.933594 208.027344 86.785156 209.542969 85.964844 210.957031 C 85.144531 211.652344 83.929688 211.914062 82.910156 212.246094 C 82.089844 212.441406 80.90625 212.738281 80.347656 211.847656 C 80.152344 211.023438 80.742188 210.332031 81.269531 209.773438 C 82.484375 208.617188 83.796875 207.628906 85.210938 206.773438 Z M 85.210938 206.773438 " fill-opacity="1" fill-rule="nonzero"/><path fill="#113859" d="M 190.953125 208.949219 C 192.003906 208.519531 193.1875 208.816406 193.875 209.738281 C 195.027344 211.253906 194.796875 213.828125 193.351562 215.113281 C 192.429688 215.902344 191.085938 215.96875 190.132812 215.242188 C 188.0625 213.695312 188.621094 209.902344 190.953125 208.949219 Z M 190.953125 208.949219 " fill-opacity="1" fill-rule="nonzero"/><path fill="#113859" d="M 184.351562 209.441406 L 184.515625 209.246094 C 185.832031 209.277344 186.914062 210.101562 187.667969 211.125 C 188.0625 211.683594 187.867188 212.246094 187.605469 212.804688 C 187.109375 213.761719 186.160156 214.683594 185.074219 214.816406 C 184.320312 214.882812 183.894531 214.355469 183.761719 213.628906 C 183.566406 212.246094 183.628906 210.628906 184.351562 209.441406 Z M 184.351562 209.441406 " fill-opacity="1" fill-rule="nonzero"/><path fill="#f2eed6" d="M 191.773438 210.234375 C 192.398438 209.902344 193.121094 210.136719 193.480469 210.726562 C 194.203125 211.914062 193.777344 213.925781 192.429688 214.519531 C 191.808594 214.816406 191.117188 214.585938 190.820312 213.925781 C 190.265625 212.773438 190.558594 210.925781 191.773438 210.234375 Z M 191.773438 210.234375 " fill-opacity="1" fill-rule="nonzero"/><path fill="#f2eed6" d="M 109.9375 210.597656 C 116.375 210.496094 122.777344 210.5625 129.214844 210.496094 C 138.046875 210.53125 146.851562 210.628906 155.683594 210.628906 C 159.589844 210.628906 163.53125 210.367188 167.40625 210.5625 C 167.570312 211.222656 167.703125 211.882812 167.867188 212.539062 C 162.84375 212.640625 157.816406 212.375 152.792969 212.441406 C 138.410156 212.507812 124.027344 212.707031 109.640625 212.539062 C 108.691406 212.507812 107.605469 212.605469 106.6875 212.308594 C 106.0625 212.011719 106.097656 211.089844 106.753906 210.828125 C 107.769531 210.496094 108.921875 210.628906 109.9375 210.597656 Z M 109.9375 210.597656 " fill-opacity="1" fill-rule="nonzero"/><path fill="#113859" d="M 195.582031 214.683594 C 196.601562 214.453125 197.816406 214.945312 198.800781 215.242188 C 200.117188 215.671875 201.5625 216.066406 202.777344 216.757812 C 203.628906 217.253906 203.53125 218.40625 203.203125 219.199219 C 202.777344 220.351562 201.625 221.703125 200.3125 221.835938 C 199.195312 221.671875 198.179688 220.582031 197.421875 219.792969 C 196.535156 218.769531 195.519531 217.714844 194.960938 216.464844 C 194.632812 215.671875 194.695312 214.980469 195.582031 214.683594 Z M 195.582031 214.683594 " fill-opacity="1" fill-rule="nonzero"/><path fill="#113859" d="M 81.5 215.046875 C 82.515625 214.914062 83.667969 215.375 84.617188 215.703125 C 85.339844 216 86.195312 216.527344 86.226562 217.417969 C 86.160156 218.539062 85.769531 219.660156 85.441406 220.746094 C 84.71875 220.582031 84.058594 220.582031 83.535156 219.957031 C 82.648438 218.933594 81.628906 217.914062 80.972656 216.726562 C 80.644531 216.101562 80.742188 215.277344 81.5 215.046875 Z M 81.5 215.046875 " fill-opacity="1" fill-rule="nonzero"/><path fill="#113859" d="M 190.101562 216.726562 C 190.921875 216.496094 191.644531 216.992188 191.972656 217.714844 C 192.398438 218.671875 192.464844 219.824219 192.5625 220.878906 C 192.59375 221.769531 192.726562 222.789062 192.429688 223.648438 C 192.167969 224.339844 191.183594 224.242188 190.625 224.011719 C 189.640625 223.582031 188.589844 222.855469 188.03125 221.902344 C 187.605469 220.945312 188.195312 219.59375 188.621094 218.703125 C 188.984375 218.078125 189.378906 217.054688 190.101562 216.726562 Z M 190.101562 216.726562 " fill-opacity="1" fill-rule="nonzero"/><path fill="#113859" d="M 79.988281 218.242188 C 81.203125 219.394531 81.433594 220.914062 81.464844 222.527344 C 80.941406 222.164062 80.480469 221.867188 80.183594 221.308594 C 79.726562 220.285156 79.332031 219.296875 79.988281 218.242188 Z M 79.988281 218.242188 " fill-opacity="1" fill-rule="nonzero"/><g fill="#113859" fill-opacity="1"><g transform="translate(143.652476, 130.045302)"><g><path d="M 3.621094 -2.175781 C 5.699219 -3.625 5.433594 -5.546875 4.191406 -7.332031 L 2.019531 -10.449219 L 0.53125 -9.414062 L 2.675781 -6.339844 C 3.578125 -5.042969 3.558594 -4.117188 2.691406 -3.511719 C 1.882812 -2.949219 0.945312 -3.210938 -0.0429688 -4.632812 L -6.652344 -14.117188 C -7.625 -15.519531 -7.546875 -16.488281 -6.738281 -17.050781 C -5.679688 -17.789062 -4.863281 -17.160156 -4.09375 -16.058594 L -2.171875 -13.300781 L -0.6875 -14.332031 L -2.652344 -17.15625 C -3.878906 -18.917969 -5.613281 -19.820312 -7.671875 -18.386719 C -9.582031 -17.058594 -9.660156 -15.269531 -8.046875 -12.957031 L -1.605469 -3.703125 C -0.0078125 -1.414062 1.753906 -0.875 3.621094 -2.175781 Z M 3.621094 -2.175781 "/></g></g></g><g fill="#113859" fill-opacity="1"><g transform="translate(149.599162, 125.83097)"><g><path d="M 3.847656 -1.808594 C 5.882812 -2.9375 6.164062 -4.777344 4.820312 -7.195312 L -0.660156 -17.082031 C -1.988281 -19.476562 -3.699219 -20.214844 -5.734375 -19.085938 C -7.769531 -17.957031 -8.027344 -16.128906 -6.695312 -13.734375 L -1.21875 -3.847656 C 0.125 -1.429688 1.8125 -0.679688 3.847656 -1.808594 Z M 0.429688 -4.613281 L -5.175781 -14.722656 C -6.003906 -16.214844 -5.847656 -17.160156 -4.941406 -17.660156 C -4.015625 -18.175781 -3.132812 -17.808594 -2.304688 -16.316406 L 3.300781 -6.207031 C 4.128906 -4.714844 3.984375 -3.746094 3.058594 -3.234375 C 2.152344 -2.730469 1.257812 -3.121094 0.429688 -4.613281 Z M 0.429688 -4.613281 "/></g></g></g><g fill="#113859" fill-opacity="1"><g transform="translate(156.067178, 122.155735)"><g><path d="M 1 -0.421875 L 2.644531 -1.113281 L -1.855469 -11.816406 L -3.035156 -14.351562 L -2.988281 -14.371094 L -1.523438 -12.152344 L 5.625 -2.367188 L 7.53125 -3.167969 L 0.0820312 -20.878906 L -1.5625 -20.1875 L 2.9375 -9.484375 L 4.117188 -6.949219 L 4.070312 -6.929688 L 2.605469 -9.148438 L -4.566406 -18.921875 L -6.449219 -18.132812 Z M 1 -0.421875 "/></g></g></g><g fill="#113859" fill-opacity="1"><g transform="translate(163.611965, 118.948699)"><g><path d="M 4.117188 -0.9375 C 6.546875 -1.667969 6.890625 -3.578125 6.265625 -5.660156 L 5.171875 -9.300781 L 3.441406 -8.78125 L 4.515625 -5.191406 C 4.972656 -3.679688 4.667969 -2.804688 3.652344 -2.5 C 2.710938 -2.21875 1.898438 -2.757812 1.402344 -4.417969 L -1.921875 -15.488281 C -2.410156 -17.121094 -2.03125 -18.019531 -1.089844 -18.300781 C 0.148438 -18.671875 0.726562 -17.820312 1.113281 -16.535156 L 2.078125 -13.3125 L 3.8125 -13.835938 L 2.824219 -17.128906 C 2.207031 -19.183594 0.84375 -20.582031 -1.558594 -19.863281 C -3.789062 -19.195312 -4.421875 -17.519531 -3.609375 -14.820312 L -0.371094 -4.019531 C 0.433594 -1.34375 1.9375 -0.285156 4.117188 -0.9375 Z M 4.117188 -0.9375 "/></g></g></g><g fill="#113859" fill-opacity="1"><g transform="translate(170.670084, 116.815968)"><g><path d="M 1.066406 -0.214844 L 6.515625 -1.308594 L 6.195312 -2.90625 L 2.542969 -2.171875 L 1.085938 -9.425781 L 4.203125 -10.050781 L 3.882812 -11.648438 L 0.765625 -11.019531 L -0.601562 -17.816406 L 3 -18.539062 L 2.679688 -20.136719 L -2.722656 -19.050781 Z M 1.066406 -0.214844 "/></g></g></g><g fill="#113859" fill-opacity="1"><g transform="translate(176.669654, 115.54749)"><g><path d="M 3.988281 -0.144531 C 6.019531 -0.363281 7.148438 -1.734375 6.933594 -3.714844 L 6.53125 -7.441406 C 6.289062 -9.703125 5.078125 -10.5625 3.207031 -11.246094 C 2.199219 -11.683594 1.304688 -12 1.152344 -13.414062 L 0.804688 -16.65625 C 0.722656 -17.402344 1.121094 -18.066406 2.042969 -18.167969 C 3.175781 -18.289062 3.648438 -17.535156 3.753906 -16.558594 L 4.074219 -13.574219 L 5.796875 -13.761719 L 5.476562 -16.742188 C 5.253906 -18.800781 4.003906 -20.019531 1.84375 -19.785156 C -0.0585938 -19.578125 -1.222656 -18.308594 -1.023438 -16.457031 L -0.671875 -13.21875 C -0.433594 -11.007812 0.753906 -10.355469 2.304688 -9.742188 C 3.664062 -9.1875 4.5625 -8.816406 4.734375 -7.222656 L 5.132812 -3.546875 C 5.238281 -2.566406 4.792969 -1.871094 3.839844 -1.765625 C 2.582031 -1.632812 2.117188 -2.570312 2.019531 -3.46875 L 1.664062 -6.761719 L -0.136719 -6.566406 L 0.21875 -3.273438 C 0.457031 -1.0625 1.832031 0.0898438 3.988281 -0.144531 Z M 3.988281 -0.144531 "/></g></g></g><g fill="#113859" fill-opacity="1"><g transform="translate(183.582291, 114.754814)"><g><path d="M 3.984375 0.238281 C 6.027344 0.214844 7.28125 -1.039062 7.257812 -3.03125 L 7.214844 -6.78125 C 7.191406 -9.054688 6.066406 -10.027344 4.273438 -10.882812 C 3.308594 -11.417969 2.453125 -11.820312 2.4375 -13.242188 L 2.398438 -16.5 C 2.390625 -17.25 2.847656 -17.875 3.78125 -17.886719 C 4.917969 -17.898438 5.316406 -17.101562 5.324219 -16.121094 L 5.359375 -13.121094 L 7.09375 -13.140625 L 7.058594 -16.140625 C 7.035156 -18.207031 5.90625 -19.539062 3.734375 -19.515625 C 1.824219 -19.496094 0.542969 -18.34375 0.5625 -16.480469 L 0.601562 -13.222656 C 0.625 -11 1.746094 -10.234375 3.230469 -9.476562 C 4.53125 -8.792969 5.386719 -8.335938 5.40625 -6.734375 L 5.449219 -3.035156 C 5.460938 -2.054688 4.949219 -1.402344 3.992188 -1.390625 C 2.726562 -1.375 2.351562 -2.355469 2.34375 -3.257812 L 2.304688 -6.570312 L 0.496094 -6.546875 L 0.53125 -3.238281 C 0.558594 -1.015625 1.8125 0.265625 3.984375 0.238281 Z M 3.984375 0.238281 "/></g></g></g><g fill="#113859" fill-opacity="1"><g transform="translate(190.770135, 114.717928)"><g><path d="M 1.085938 0.0664062 L 2.917969 0.179688 L 4.089844 -19 L 2.257812 -19.113281 Z M 1.085938 0.0664062 "/></g></g></g><g fill="#113859" fill-opacity="1"><g transform="translate(194.025519, 114.802614)"><g><path d="M 4.164062 0.863281 C 6.46875 1.179688 7.796875 -0.125 8.175781 -2.867188 L 9.722656 -14.058594 C 10.09375 -16.773438 9.171875 -18.390625 6.863281 -18.710938 C 4.558594 -19.027344 3.257812 -17.71875 2.882812 -15.003906 L 1.335938 -3.808594 C 0.957031 -1.070312 1.855469 0.542969 4.164062 0.863281 Z M 3.109375 -3.433594 L 4.691406 -14.886719 C 4.925781 -16.574219 5.617188 -17.238281 6.640625 -17.09375 C 7.691406 -16.949219 8.179688 -16.125 7.945312 -14.4375 L 6.363281 -2.984375 C 6.128906 -1.292969 5.433594 -0.605469 4.386719 -0.753906 C 3.359375 -0.894531 2.878906 -1.742188 3.109375 -3.433594 Z M 3.109375 -3.433594 "/></g></g></g><g fill="#113859" fill-opacity="1"><g transform="translate(201.405164, 115.742768)"><g><path d="M 1.054688 0.261719 L 2.785156 0.695312 L 5.601562 -10.566406 L 6.179688 -13.300781 L 6.230469 -13.289062 L 6.074219 -10.636719 L 5.921875 1.480469 L 7.925781 1.984375 L 12.589844 -16.65625 L 10.859375 -17.089844 L 8.042969 -5.824219 L 7.464844 -3.089844 L 7.414062 -3.101562 L 7.570312 -5.757812 L 7.699219 -17.878906 L 5.71875 -18.375 Z M 1.054688 0.261719 "/></g></g></g><g fill="#113859" fill-opacity="1"><g transform="translate(209.354542, 117.692669)"><g><path d="M 0.195312 0.0703125 L 1.917969 0.707031 L 3.890625 -3.003906 L 6.972656 -1.867188 L 6.066406 2.238281 L 7.8125 2.882812 L 11.839844 -16.113281 L 9.460938 -16.988281 Z M 9.773438 -18.28125 L 10.914062 -17.859375 L 13.832031 -20.089844 L 12.132812 -20.71875 Z M 4.671875 -4.449219 L 8.8125 -12.15625 L 9.585938 -13.664062 L 9.609375 -13.65625 L 9.222656 -12.007812 L 7.34375 -3.464844 Z M 4.671875 -4.449219 "/></g></g></g><g fill="#113859" fill-opacity="1"><g transform="translate(216.423517, 120.248039)"><g><path d="M 0.976562 0.476562 L 2.625 1.285156 L 6.140625 -5.890625 L 7.164062 -5.386719 C 8.070312 -4.945312 8.316406 -4.273438 7.953125 -3.359375 L 6.429688 0.0429688 C 5.917969 1.203125 5.636719 2.128906 5.503906 2.699219 L 7.128906 3.496094 C 7.226562 2.878906 7.476562 2.082031 7.953125 0.988281 L 9.476562 -2.296875 C 10.042969 -3.628906 10.058594 -4.660156 9.1875 -5.460938 L 9.199219 -5.484375 C 10.378906 -5.25 11.367188 -5.859375 11.996094 -7.136719 L 13.851562 -10.921875 C 14.816406 -12.894531 14.261719 -14.40625 12.382812 -15.328125 L 9.433594 -16.773438 Z M 6.871094 -7.375 L 10.363281 -14.503906 L 11.617188 -13.890625 C 12.546875 -13.433594 12.703125 -12.636719 12.25 -11.707031 L 10.3125 -7.761719 C 9.734375 -6.578125 8.890625 -6.382812 7.984375 -6.828125 Z M 6.871094 -7.375 "/></g></g></g><g fill="#113859" fill-opacity="1"><g transform="translate(223.20268, 123.63189)"><g><path d="M 0.9375 0.550781 L 2.519531 1.480469 L 12.246094 -15.089844 L 10.664062 -16.019531 Z M 0.9375 0.550781 "/></g></g></g><g fill="#113859" fill-opacity="1"><g transform="translate(226.066256, 125.179442)"><g><path d="M 0.171875 0.117188 L 1.679688 1.164062 L 4.519531 -1.929688 L 7.21875 -0.0585938 L 5.308594 3.6875 L 6.839844 4.75 L 15.503906 -12.625 L 13.421875 -14.070312 Z M 5.640625 -3.136719 L 11.582031 -9.558594 L 12.707031 -10.820312 L 12.730469 -10.804688 L 11.941406 -9.308594 L 7.976562 -1.511719 Z M 5.640625 -3.136719 "/></g></g></g><g fill="#113859" fill-opacity="1"><g transform="translate(151.480917, 271.638393)"><g><path d="M 1.628906 0.945312 C 3.675781 1.75 5.058594 1.128906 5.984375 -1.230469 L 11.796875 -16.007812 L 7.394531 -17.738281 L 6.789062 -16.199219 L 9.507812 -15.128906 L 4.292969 -1.867188 C 3.828125 -0.691406 3.164062 -0.199219 2.03125 -0.644531 C 1.625 -0.804688 1.144531 -1.078125 0.582031 -1.410156 L -0.00390625 0.0820312 C 0.367188 0.339844 1.027344 0.710938 1.628906 0.945312 Z M 1.628906 0.945312 "/></g></g></g><g fill="#113859" fill-opacity="1"><g transform="translate(157.882502, 274.174361)"><g><path d="M 0.199219 0.0585938 L 1.960938 0.578125 L 3.679688 -3.257812 L 6.832031 -2.328125 L 6.203125 1.824219 L 7.988281 2.351562 L 10.734375 -16.867188 L 8.304688 -17.585938 Z M 4.363281 -4.753906 L 7.976562 -12.71875 L 8.652344 -14.273438 L 8.675781 -14.265625 L 8.398438 -12.597656 L 7.09375 -3.949219 Z M 4.363281 -4.753906 "/></g></g></g><g fill="#113859" fill-opacity="1"><g transform="translate(167.070512, 276.819364)"><g><path d="M 4.117188 1.054688 C 6.632812 1.523438 7.769531 -0.0546875 8.199219 -2.367188 L 9.230469 -7.910156 L 5.925781 -8.527344 L 5.617188 -6.875 L 7.296875 -6.5625 L 6.523438 -2.417969 C 6.238281 -0.867188 5.535156 -0.339844 4.390625 -0.550781 C 3.421875 -0.730469 2.941406 -1.53125 3.257812 -3.234375 L 5.382812 -14.675781 C 5.691406 -16.328125 6.464844 -16.949219 7.429688 -16.769531 C 8.675781 -16.535156 8.808594 -15.566406 8.574219 -14.292969 L 7.988281 -11.140625 L 9.769531 -10.808594 L 10.347656 -13.9375 C 10.761719 -16.148438 10.195312 -17.910156 7.726562 -18.371094 C 5.414062 -18.800781 4.085938 -17.601562 3.570312 -14.828125 L 1.511719 -3.742188 C 1 -0.996094 1.804688 0.625 4.117188 1.054688 Z M 4.117188 1.054688 "/></g></g></g><g fill="#113859" fill-opacity="1"><g transform="translate(176.300466, 278.485328)"><g><path d="M 4.230469 0.628906 C 6.445312 0.808594 7.691406 -0.464844 7.917969 -3.246094 L 9.164062 -18.53125 L 7.359375 -18.679688 L 6.101562 -3.238281 C 5.972656 -1.640625 5.339844 -0.914062 4.363281 -0.992188 C 3.355469 -1.074219 2.878906 -1.894531 3.007812 -3.492188 L 4.265625 -18.929688 L 2.4375 -19.078125 L 1.191406 -3.792969 C 0.964844 -1.011719 2.011719 0.449219 4.230469 0.628906 Z M 4.230469 0.628906 "/></g></g></g><g fill="#113859" fill-opacity="1"><g transform="translate(185.818351, 279.207119)"><g><path d="M 0.207031 -0.00390625 L 2.042969 -0.046875 L 2.519531 -4.222656 L 5.800781 -4.292969 L 6.464844 -0.144531 L 8.324219 -0.1875 L 5.105469 -19.332031 L 2.570312 -19.277344 Z M 2.714844 -5.855469 L 3.738281 -14.542969 L 3.90625 -16.226562 L 3.929688 -16.226562 L 4.175781 -14.550781 L 5.558594 -5.917969 Z M 2.714844 -5.855469 "/></g></g></g><g fill="#113859" fill-opacity="1"><g transform="translate(195.374125, 278.936244)"><g><path d="M 1.078125 -0.136719 L 2.898438 -0.363281 L 1.90625 -8.292969 L 3.035156 -8.433594 C 4.035156 -8.558594 4.609375 -8.136719 4.808594 -7.171875 L 5.398438 -3.492188 C 5.609375 -2.242188 5.882812 -1.3125 6.082031 -0.761719 L 7.878906 -0.988281 C 7.625 -1.554688 7.390625 -2.359375 7.191406 -3.535156 L 6.664062 -7.117188 C 6.40625 -8.542969 5.855469 -9.414062 4.683594 -9.605469 L 4.683594 -9.632812 C 5.796875 -10.082031 6.292969 -11.136719 6.113281 -12.546875 L 5.589844 -16.730469 C 5.316406 -18.910156 4.023438 -19.871094 1.945312 -19.609375 L -1.3125 -19.199219 Z M 1.699219 -9.933594 L 0.710938 -17.8125 L 2.097656 -17.984375 C 3.121094 -18.113281 3.691406 -17.535156 3.820312 -16.507812 L 4.367188 -12.144531 C 4.53125 -10.835938 3.929688 -10.214844 2.929688 -10.089844 Z M 1.699219 -9.933594 "/></g></g></g><g fill="#113859" fill-opacity="1"><g transform="translate(204.361853, 277.69853)"><g><path d="M 1.066406 -0.214844 L 2.863281 -0.578125 L -0.949219 -19.410156 L -2.75 -19.046875 Z M 1.066406 -0.214844 "/></g></g></g><g fill="#113859" fill-opacity="1"><g transform="translate(209.04014, 276.806327)"><g><path d="M 1.046875 -0.292969 L 4.230469 -1.191406 C 6.421875 -1.8125 7.019531 -3.214844 6.457031 -5.207031 L 5.300781 -9.3125 C 4.898438 -10.730469 4.089844 -11.417969 2.851562 -11.417969 L 2.84375 -11.441406 C 3.753906 -12.128906 3.890625 -13.160156 3.582031 -14.257812 L 2.636719 -17.617188 C 2.082031 -19.582031 0.632812 -20.140625 -1.160156 -19.636719 L -4.171875 -18.789062 Z M 2.371094 -2.359375 L 0.3125 -9.652344 L 1.507812 -9.992188 C 2.527344 -10.277344 3.273438 -9.925781 3.601562 -8.753906 L 4.726562 -4.773438 C 5.019531 -3.726562 4.660156 -3.007812 3.613281 -2.710938 Z M -0.128906 -11.222656 L -1.960938 -17.71875 L -0.839844 -18.035156 C 0.128906 -18.308594 0.726562 -17.910156 0.992188 -16.964844 L 1.953125 -13.554688 C 2.242188 -12.535156 1.988281 -11.820312 0.992188 -11.539062 Z M -0.128906 -11.222656 "/></g></g></g><g fill="#113859" fill-opacity="1"><g transform="translate(217.958006, 274.215041)"><g><path d="M 1.011719 -0.390625 L 6.199219 -2.394531 L 5.613281 -3.914062 L 2.140625 -2.570312 L -0.523438 -9.472656 L 2.441406 -10.617188 L 1.855469 -12.136719 L -1.109375 -10.992188 L -3.605469 -17.457031 L -0.179688 -18.78125 L -0.769531 -20.300781 L -5.90625 -18.316406 Z M 1.011719 -0.390625 "/></g></g></g></svg>